# This file uses centimeters as units for non-parametric coordinates.

mtllib base1.mtl
g default
v -36.041099 -16.537251 -0.149232
v -18.020550 -16.537251 -0.149232
v 0.000000 -16.537251 -0.149232
v 18.020550 -16.537251 -0.149232
v 36.041099 -16.537251 -0.149232
v -36.041099 -8.599151 -10.351066
v -18.020550 -8.599151 -10.351066
v 0.000000 -8.599151 -10.351066
v 18.020550 -8.599151 -10.351066
v 36.041099 -8.599151 -10.351066
v -36.041099 0.000000 -10.351067
v -18.020550 0.000000 -10.351067
v 0.000000 0.000000 -10.351067
v 18.020550 0.000000 -10.351067
v 36.041099 0.000000 -10.351067
v -36.041099 8.599151 -10.351066
v -18.020550 8.599151 -10.351066
v 0.000000 8.599151 -10.351066
v 18.020550 8.599151 -10.351066
v 36.041099 8.599151 -10.351066
v -36.041099 16.234184 -0.509080
v -18.020550 16.234184 -0.509080
v 0.000000 16.234184 -0.509080
v 18.020550 16.234184 -0.509080
v 36.041099 16.234184 -0.509080
v -36.041099 17.198303 -0.500000
v 36.041099 17.198303 -0.500000
v -36.041099 8.599151 -11.351066
v 36.041099 8.599151 -11.351066
v -36.041099 0.000000 -11.351067
v 36.041099 0.000000 -11.351067
v -36.041099 -8.599151 -11.351066
v 36.041099 -8.599151 -11.351066
v -36.041099 -17.198303 -0.500000
v 36.041099 -17.198303 -0.500000
v -36.041099 -17.198303 24.296515
v -18.020550 -17.198303 24.296515
v -18.020550 -16.498131 24.330021
v -36.041099 -16.498131 24.330021
v 0.000000 -17.198303 24.296515
v 0.000000 -16.498131 24.330021
v 18.020550 -17.198303 24.296515
v 18.020550 -16.498131 24.330021
v 36.041099 -17.198303 24.296515
v 36.041099 -16.498131 24.330021
v -36.041099 17.116964 25.992706
v -18.020550 17.116964 25.992706
v -18.020550 17.854797 25.848696
v -36.041099 17.854797 25.848696
v 0.000000 17.116964 25.992706
v 0.000000 17.854797 25.848696
v 18.020550 17.116964 25.992706
v 18.020550 17.854797 25.848696
v 36.041099 17.116964 25.992706
v 36.041099 17.854797 25.848696
vt 0.149203 0.013740
vt 0.320320 0.038151
vt 0.319375 0.394617
vt 0.132753 0.393688
vt 0.492319 0.038151
vt 0.492319 0.394617
vt 0.664289 0.038151
vt 0.665234 0.394617
vt 0.836256 0.038151
vt 0.867530 0.344446
vt 0.319375 0.474891
vt 0.132753 0.499860
vt 0.492319 0.474891
vt 0.665234 0.474891
vt 0.861263 0.475286
vt 0.320320 0.559848
vt 0.131181 0.621804
vt 0.492319 0.559848
vt 0.664289 0.559848
vt 0.861123 0.581409
vt 0.320320 0.692037
vt 0.148243 0.692042
vt 0.492319 0.692031
vt 0.664289 0.692026
vt 0.840464 0.966545
vt 0.148243 0.950267
vt 0.320320 0.940346
vt 0.320320 0.957859
vt 0.148243 0.957847
vt 0.492319 0.940344
vt 0.492319 0.957872
vt 0.664289 0.940342
vt 0.664289 0.957884
vt 0.514542 0.967644
vt 0.515582 0.977997
vt 0.432741 0.005695
vt 0.320320 0.026768
vt 0.320320 0.027477
vt 0.432741 0.016352
vt 0.492319 0.026768
vt 0.492319 0.027477
vt 0.664289 0.026768
vt 0.664289 0.027477
vt 0.836256 0.026768
vt 0.836256 0.245535
vt 0.835859 0.007060
vt 0.875527 0.355499
vt 0.873760 0.475302
vt 0.873621 0.581426
vt 0.876247 0.767443
vt 0.123960 0.207260
vt 0.120981 0.393688
vt 0.120981 0.499860
vt 0.124182 0.614040
vt 0.146394 0.984062
vt 0.664289 0.688442
vt 0.492319 0.688442
vt 0.320320 0.688442
vt 0.874595 0.168601
vt 0.836256 0.252542
vt 0.145418 0.006367
vt 0.134594 0.208844
vt 0.664289 0.252542
vt 0.492319 0.252542
vt 0.320320 0.252542
vt 0.664289 0.950267
vt 0.836256 0.940340
vt 0.836256 0.692020
vt 0.492319 0.950267
vt 0.320320 0.950267
vt 0.148243 0.940349
vt 0.148243 0.688442
vt 0.146353 0.555165
vt 0.836256 0.559848
vt 0.665234 0.555165
vt 0.492319 0.555165
vt 0.319375 0.555165
vt 0.836256 0.688442
vt 0.148243 0.559848
vt 0.131458 0.764327
vt 0.148243 0.252542
vt 0.148243 0.038151
vt 0.146353 0.474891
vt 0.146353 0.394617
vt 0.148243 0.386240
vt 0.838145 0.394617
vt 0.664289 0.386240
vt 0.492319 0.386240
vt 0.320320 0.386240
vt 0.865147 0.170538
vt 0.832058 0.014576
vt 0.838145 0.474891
vt 0.838145 0.555165
vt 0.836256 0.386240
vt 0.865614 0.760131
vt 0.840464 0.979933
vt 0.146394 0.973330
vt 0.122067 0.772729
vt 0.836256 0.950267
vt 0.836256 0.957896
vt 0.413504 0.973330
vt 0.412229 0.981236
vt 0.664289 0.245535
vt 0.544860 0.014576
vt 0.492319 0.245535
vt 0.320320 0.245535
vt 0.148243 0.245535
vt 0.544860 0.007060
vt 0.836256 0.027477
vt 0.148305 0.026768
vt 0.148305 0.027477
vt 0.875545 0.596464
vt 0.866818 0.605356
vt 0.873901 0.368373
vt 0.861403 0.368356
vt 0.120981 0.606033
vt 0.132753 0.606032
vt 0.123815 0.378626
vt 0.131591 0.369288
vn 0.000000 0.789227 0.614102
vn 0.000000 0.789227 0.614102
vn 0.000000 0.525033 0.851082
vn 0.000000 0.525033 0.851082
vn 0.000000 0.789227 0.614102
vn 0.000000 0.525033 0.851082
vn 0.000000 0.789227 0.614102
vn 0.000000 0.525033 0.851082
vn 0.000000 0.789227 0.614102
vn 0.000000 0.525033 0.851082
vn 0.000000 0.000000 1.000000
vn 0.000000 0.000000 1.000000
vn 0.000000 0.000000 1.000000
vn 0.000000 0.000000 1.000000
vn 0.000000 0.000000 1.000000
vn 0.000000 -0.518421 0.855126
vn 0.000000 -0.518421 0.855126
vn 0.000000 -0.518421 0.855126
vn 0.000000 -0.518421 0.855126
vn 0.000000 -0.518421 0.855126
vn 0.000000 -0.790124 0.612948
vn 0.000000 -0.790124 0.612948
vn 0.000000 -0.790124 0.612948
vn 0.000000 -0.790124 0.612948
vn 0.000000 -0.790124 0.612948
vn 0.000000 0.191566 0.981480
vn 0.000000 0.191566 0.981480
vn 0.000000 0.191566 0.981480
vn 0.000000 0.191566 0.981480
vn 0.000000 0.191566 0.981480
vn 0.000000 0.191566 0.981480
vn 0.000000 0.191566 0.981480
vn 0.000000 0.191566 0.981480
vn 0.000000 0.191566 0.981480
vn 0.000000 0.191566 0.981480
vn 0.000000 -0.047800 0.998857
vn 0.000000 -0.047800 0.998857
vn 0.000000 -0.047800 0.998857
vn 0.000000 -0.047800 0.998857
vn 0.000000 -0.047800 0.998857
vn 0.000000 -0.047800 0.998857
vn 0.000000 -0.047800 0.998857
vn 0.000000 -0.047800 0.998857
vn 0.000000 -0.047800 0.998857
vn 0.000000 -0.047800 0.998857
vn 1.000000 0.000000 0.000000
vn 1.000000 0.000000 0.000000
vn 1.000000 0.000000 0.000000
vn 1.000000 0.000000 0.000000
vn 1.000000 0.000000 0.000000
vn 1.000000 0.000000 0.000000
vn 1.000000 0.000000 0.000000
vn 1.000000 0.000000 0.000000
vn 1.000000 0.000000 0.000000
vn 1.000000 0.000000 0.000000
vn -1.000000 0.000000 0.000000
vn -1.000000 0.000000 0.000000
vn -1.000000 0.000000 0.000000
vn -1.000000 0.000000 0.000000
vn -1.000000 0.000000 0.000000
vn -1.000000 0.000000 0.000000
vn -1.000000 0.000000 0.000000
vn -1.000000 0.000000 0.000000
vn -1.000000 0.000000 0.000000
vn -1.000000 0.000000 0.000000
vn 0.000000 0.999999 -0.001598
vn 0.000000 0.999999 -0.001598
vn 0.000000 0.999999 -0.001598
vn 0.000000 0.999999 -0.001598
vn -1.000000 0.000000 0.000000
vn -1.000000 0.000000 0.000000
vn -1.000000 0.000000 0.000000
vn -1.000000 0.000000 0.000000
vn 0.000000 0.999999 -0.001598
vn 0.000000 0.999999 -0.001598
vn 0.000000 0.999999 -0.001598
vn 0.000000 0.999999 -0.001598
vn 1.000000 0.000000 0.000000
vn 1.000000 0.000000 0.000000
vn 1.000000 0.000000 0.000000
vn 1.000000 0.000000 0.000000
vn 0.000000 0.999999 -0.001598
vn 0.000000 0.999999 -0.001598
vn 0.000000 -0.999446 0.033292
vn 0.000000 -0.999446 0.033292
vn 0.000000 -0.999446 0.033292
vn 0.000000 -0.999446 0.033292
vn -1.000000 0.000000 0.000000
vn -1.000000 0.000000 0.000000
vn 0.000000 -0.999446 0.033292
vn 0.000000 -0.999446 0.033292
vn 0.000000 -0.999446 0.033292
vn 0.000000 -0.999446 0.033292
vn 0.000000 -0.999446 0.033292
vn 0.000000 -0.999446 0.033292
vn 1.000000 0.000000 0.000000
vn 1.000000 0.000000 0.000000
s 1
g baseLP
usemtl initialShadingGroup
f 1/81/1 2/65/2 7/89/3 6/85/4
f 2/65/2 3/64/5 8/88/6 7/89/3
f 3/64/5 4/63/7 9/87/8 8/88/6
f 4/63/7 5/60/9 10/94/10 9/87/8
f 6/84/4 7/3/3 12/11/11 11/83/12
f 7/3/3 8/6/6 13/13/13 12/11/11
f 8/6/6 9/8/8 14/14/14 13/13/13
f 9/8/8 10/86/10 15/92/15 14/14/14
f 11/83/12 12/11/11 17/77/16 16/73/17
f 12/11/11 13/13/13 18/76/18 17/77/16
f 13/13/13 14/14/14 19/75/19 18/76/18
f 14/14/14 15/92/15 20/93/20 19/75/19
f 16/79/17 17/16/16 22/58/21 21/72/22
f 17/16/16 18/18/18 23/57/23 22/58/21
f 18/18/18 19/19/19 24/56/24 23/57/23
f 19/19/19 20/74/20 25/78/25 24/56/24
s 2
f 46/26/26 47/70/27 48/28/28 49/29/29
f 47/70/27 50/69/30 51/31/31 48/28/28
f 50/69/30 52/66/32 53/33/33 51/31/31
f 52/66/32 54/99/34 55/100/35 53/33/33
s 3
f 36/110/36 37/37/37 38/38/38 39/111/39
f 37/37/37 40/40/40 41/41/41 38/38/38
f 40/40/40 42/42/42 43/43/43 41/41/41
f 42/42/42 44/44/44 45/109/45 43/43/43
s 4
f 5/90/46 35/59/47 33/47/48 10/10/49
f 10/115/49 33/114/48 31/48/50 15/15/51
f 15/15/51 31/48/50 29/49/52 20/20/53
f 20/113/53 29/112/52 27/50/54 25/95/55
s 5
f 34/51/56 1/62/57 6/119/58 32/118/59
f 32/52/59 6/4/58 11/12/60 30/53/61
f 30/53/61 11/12/60 16/117/62 28/116/63
f 28/54/63 16/17/62 21/80/64 26/98/65
s 6
f 2/2/66 1/82/67 39/107/68 38/106/69
s off
f 1/1/70 34/61/71 36/36/72 39/39/73
s 6
f 3/5/74 2/2/66 38/106/69 41/105/75
f 4/7/76 3/5/74 41/105/75 43/103/77
s off
f 35/46/78 5/91/79 45/104/80 44/108/81
s 6
f 5/9/82 4/7/76 43/103/77 45/45/83
s 7
f 21/22/84 22/21/85 47/27/86 46/71/87
s 5
f 26/55/65 21/97/64 46/101/88 49/102/89
s 7
f 22/21/85 23/23/90 50/30/91 47/27/86
f 23/23/90 24/24/92 52/32/93 50/30/91
f 24/24/92 25/68/94 54/67/95 52/32/93
s 4
f 25/25/55 27/96/54 55/35/96 54/34/97
