# This file uses centimeters as units for non-parametric coordinates.

g default
v -4.058619 -4.014267 5.000000
v 4.225981 -4.014267 5.000000
v -4.058619 4.121257 5.000000
v 4.225981 4.121257 5.000000
v -4.058619 5.000000 4.117480
v 4.225981 5.000000 4.117480
v -4.058619 5.000000 -4.050586
v 4.225981 5.000000 -4.050586
v -4.058619 4.121257 -5.000000
v 4.225981 4.121257 -5.000000
v -4.058619 -4.014267 -5.000000
v 4.225981 -4.014267 -5.000000
v -4.058619 -5.000000 -4.050586
v 4.225981 -5.000000 -4.050586
v -4.058619 -5.000000 4.117480
v 4.225981 -5.000000 4.117480
v 5.000000 -4.014267 -4.050586
v 5.000000 -4.014267 4.117480
v 5.000000 4.121257 -4.050586
v 5.000000 4.121257 4.117480
v -5.000000 -4.014267 -4.050586
v -5.000000 -4.014267 4.117480
v -5.000000 4.121257 -4.050586
v -5.000000 4.121257 4.117480
v -5.350686 -5.350686 5.350686
v -4.343279 -5.350686 5.350686
v -4.343279 -4.295822 5.350686
v -5.350686 -4.295822 5.350686
v 4.522381 -5.350686 5.350686
v 4.522381 -4.295822 5.350686
v 5.350686 -5.350686 5.350686
v 5.350686 -4.295822 5.350686
v -4.343279 4.410315 5.350686
v -5.350686 4.410315 5.350686
v 5.350686 4.410315 5.350686
v 4.522381 4.410315 5.350686
v -4.343279 5.350686 5.350686
v -5.350686 5.350686 5.350686
v 4.522381 5.350686 5.350686
v 5.350686 5.350686 5.350686
v -4.343279 5.350686 4.406275
v -5.350686 5.350686 4.406275
v 4.522381 5.350686 4.406275
v 5.350686 5.350686 4.406275
v -4.343279 5.350686 -4.334683
v -5.350686 5.350686 -4.334683
v 5.350686 5.350686 -4.334683
v 4.522381 5.350686 -4.334683
v -4.343279 5.350686 -5.350686
v -5.350686 5.350686 -5.350686
v 4.522381 5.350686 -5.350686
v 5.350686 5.350686 -5.350686
v -4.343279 4.410315 -5.350686
v -5.350686 4.410315 -5.350686
v 4.522381 4.410315 -5.350686
v 5.350686 4.410315 -5.350686
v -4.343279 -4.295822 -5.350686
v -5.350686 -4.295822 -5.350686
v 5.350686 -4.295822 -5.350686
v 4.522381 -4.295822 -5.350686
v -4.343279 -5.350686 -5.350686
v -5.350686 -5.350686 -5.350686
v 4.522381 -5.350686 -5.350686
v 5.350686 -5.350686 -5.350686
v -4.343279 -5.350686 -4.334683
v -5.350686 -5.350686 -4.334683
v 4.522381 -5.350686 -4.334683
v 5.350686 -5.350686 -4.334683
v -4.343279 -5.350686 4.406275
v -5.350686 -5.350686 4.406275
v 5.350686 -5.350686 4.406275
v 4.522381 -5.350686 4.406275
v 5.350686 -4.295822 -4.334683
v 5.350686 -4.295822 4.406275
v 5.350686 4.410315 -4.334683
v 5.350686 4.410315 4.406275
v -5.350686 -4.295822 -4.334683
v -5.350686 -4.295822 4.406275
v -5.350686 4.410315 -4.334683
v -5.350686 4.410315 4.406275
vt 0.300089 0.660952
vt 0.331370 0.660952
vt 0.331370 0.693430
vt 0.300089 0.693430
vt 0.331370 0.961479
vt 0.300089 0.961479
vt 0.030967 0.693430
vt 0.030967 0.660952
vt 0.331370 0.990432
vt 0.300089 0.990432
vt 0.291342 0.952580
vt 0.291342 0.702099
vt 0.039859 0.702099
vt 0.001891 0.660952
vt 0.001891 0.693430
vt 0.030967 0.990432
vt 0.030967 0.961479
vt 0.039859 0.952580
vt 0.001891 0.961479
vt 0.001891 0.990432
vt 0.331371 0.660951
vt 0.362652 0.660951
vt 0.362652 0.693429
vt 0.331371 0.693429
vt 0.631773 0.660951
vt 0.631773 0.693429
vt 0.362652 0.961479
vt 0.331371 0.961479
vt 0.660851 0.660951
vt 0.660851 0.693429
vt 0.622882 0.702098
vt 0.371399 0.702098
vt 0.371399 0.952579
vt 0.362652 0.990431
vt 0.331371 0.990431
vt 0.660851 0.961479
vt 0.631773 0.961479
vt 0.622882 0.952579
vt 0.631773 0.990431
vt 0.660851 0.990431
vt 0.331371 0.331472
vt 0.331371 0.300455
vt 0.360447 0.300455
vt 0.360447 0.331472
vt 0.331371 0.027494
vt 0.360447 0.027494
vt 0.629569 0.300455
vt 0.629569 0.331472
vt 0.331371 0.001992
vt 0.360447 0.001992
vt 0.369339 0.036620
vt 0.369339 0.291691
vt 0.620822 0.291691
vt 0.660850 0.300455
vt 0.660850 0.331472
vt 0.629569 0.001992
vt 0.629569 0.027494
vt 0.620822 0.036620
vt 0.660850 0.027494
vt 0.660850 0.001992
vt 0.001891 0.331472
vt 0.032907 0.331472
vt 0.032907 0.362753
vt 0.001891 0.362753
vt 0.305868 0.331472
vt 0.305868 0.362753
vt 0.032907 0.631875
vt 0.001891 0.631875
vt 0.331371 0.331472
vt 0.331371 0.362753
vt 0.296743 0.371500
vt 0.041672 0.371500
vt 0.041672 0.622984
vt 0.032907 0.660952
vt 0.001891 0.660952
vt 0.331371 0.631875
vt 0.305868 0.631875
vt 0.296743 0.622984
vt 0.305868 0.660952
vt 0.331371 0.660952
vt 0.001891 0.001992
vt 0.032907 0.001992
vt 0.032907 0.034470
vt 0.001891 0.034470
vt 0.305868 0.001992
vt 0.305868 0.034470
vt 0.032907 0.302519
vt 0.001891 0.302519
vt 0.331371 0.001992
vt 0.331371 0.034470
vt 0.296743 0.043139
vt 0.041671 0.043139
vt 0.041671 0.293620
vt 0.032907 0.331472
vt 0.001891 0.331472
vt 0.331371 0.302519
vt 0.305868 0.302519
vt 0.296743 0.293620
vt 0.305868 0.331472
vt 0.331371 0.331472
vt 0.331371 0.660951
vt 0.331371 0.629935
vt 0.360323 0.629935
vt 0.360323 0.660951
vt 0.331371 0.356974
vt 0.360323 0.356974
vt 0.628373 0.629935
vt 0.628373 0.660951
vt 0.331371 0.331472
vt 0.360323 0.331472
vt 0.369223 0.366099
vt 0.369223 0.621171
vt 0.619704 0.621171
vt 0.660850 0.629935
vt 0.660850 0.660951
vt 0.628373 0.331472
vt 0.628373 0.356974
vt 0.619704 0.366099
vt 0.660850 0.356974
vt 0.660850 0.331472
vn 0.000000 0.000000 1.000000
vn 0.000000 0.000000 1.000000
vn 0.000000 0.000000 1.000000
vn 0.000000 0.000000 1.000000
vn 0.000000 0.000000 1.000000
vn 0.000000 0.000000 1.000000
vn 0.000000 0.000000 1.000000
vn 0.000000 0.000000 1.000000
vn 0.000000 0.000000 1.000000
vn 0.000000 0.000000 1.000000
vn 0.000000 0.000000 1.000000
vn 0.000000 0.000000 1.000000
vn 0.000000 0.000000 1.000000
vn 0.000000 0.000000 1.000000
vn 0.000000 0.000000 1.000000
vn 0.000000 0.000000 1.000000
vn 0.000000 0.000000 1.000000
vn 0.000000 0.000000 1.000000
vn 0.000000 0.000000 1.000000
vn 0.000000 0.000000 1.000000
vn 0.000000 1.000000 0.000000
vn 0.000000 1.000000 0.000000
vn 0.000000 1.000000 0.000000
vn 0.000000 1.000000 0.000000
vn 0.000000 1.000000 0.000000
vn 0.000000 1.000000 0.000000
vn 0.000000 1.000000 0.000000
vn 0.000000 1.000000 0.000000
vn 0.000000 1.000000 0.000000
vn 0.000000 1.000000 0.000000
vn 0.000000 1.000000 0.000000
vn 0.000000 1.000000 0.000000
vn 0.000000 1.000000 0.000000
vn 0.000000 1.000000 0.000000
vn 0.000000 1.000000 0.000000
vn 0.000000 1.000000 0.000000
vn 0.000000 1.000000 0.000000
vn 0.000000 1.000000 0.000000
vn 0.000000 1.000000 0.000000
vn 0.000000 1.000000 0.000000
vn 0.000000 0.000000 -1.000000
vn 0.000000 0.000000 -1.000000
vn 0.000000 0.000000 -1.000000
vn 0.000000 0.000000 -1.000000
vn 0.000000 0.000000 -1.000000
vn 0.000000 0.000000 -1.000000
vn 0.000000 0.000000 -1.000000
vn 0.000000 0.000000 -1.000000
vn 0.000000 0.000000 -1.000000
vn 0.000000 0.000000 -1.000000
vn 0.000000 0.000000 -1.000000
vn 0.000000 0.000000 -1.000000
vn 0.000000 0.000000 -1.000000
vn 0.000000 0.000000 -1.000000
vn 0.000000 0.000000 -1.000000
vn 0.000000 0.000000 -1.000000
vn 0.000000 0.000000 -1.000000
vn 0.000000 0.000000 -1.000000
vn 0.000000 0.000000 -1.000000
vn 0.000000 0.000000 -1.000000
vn 0.000000 -1.000000 0.000000
vn 0.000000 -1.000000 0.000000
vn 0.000000 -1.000000 0.000000
vn 0.000000 -1.000000 0.000000
vn 0.000000 -1.000000 0.000000
vn 0.000000 -1.000000 0.000000
vn 0.000000 -1.000000 0.000000
vn 0.000000 -1.000000 0.000000
vn 0.000000 -1.000000 0.000000
vn 0.000000 -1.000000 0.000000
vn 0.000000 -1.000000 0.000000
vn 0.000000 -1.000000 0.000000
vn 0.000000 -1.000000 0.000000
vn 0.000000 -1.000000 0.000000
vn 0.000000 -1.000000 0.000000
vn 0.000000 -1.000000 0.000000
vn 0.000000 -1.000000 0.000000
vn 0.000000 -1.000000 0.000000
vn 0.000000 -1.000000 0.000000
vn 0.000000 -1.000000 0.000000
vn 1.000000 0.000000 0.000000
vn 1.000000 0.000000 0.000000
vn 1.000000 0.000000 0.000000
vn 1.000000 0.000000 0.000000
vn 1.000000 0.000000 0.000000
vn 1.000000 0.000000 0.000000
vn 1.000000 0.000000 0.000000
vn 1.000000 0.000000 0.000000
vn 1.000000 0.000000 0.000000
vn 1.000000 0.000000 0.000000
vn 1.000000 0.000000 0.000000
vn 1.000000 0.000000 0.000000
vn 1.000000 0.000000 0.000000
vn 1.000000 0.000000 0.000000
vn 1.000000 0.000000 0.000000
vn 1.000000 0.000000 0.000000
vn 1.000000 0.000000 0.000000
vn 1.000000 0.000000 0.000000
vn 1.000000 0.000000 0.000000
vn 1.000000 0.000000 0.000000
vn -1.000000 0.000000 0.000000
vn -1.000000 0.000000 0.000000
vn -1.000000 0.000000 0.000000
vn -1.000000 0.000000 0.000000
vn -1.000000 0.000000 0.000000
vn -1.000000 0.000000 0.000000
vn -1.000000 0.000000 0.000000
vn -1.000000 0.000000 0.000000
vn -1.000000 0.000000 0.000000
vn -1.000000 0.000000 0.000000
vn -1.000000 0.000000 0.000000
vn -1.000000 0.000000 0.000000
vn -1.000000 0.000000 0.000000
vn -1.000000 0.000000 0.000000
vn -1.000000 0.000000 0.000000
vn -1.000000 0.000000 0.000000
vn -1.000000 0.000000 0.000000
vn -1.000000 0.000000 0.000000
vn -1.000000 0.000000 0.000000
vn -1.000000 0.000000 0.000000
vn 0.000000 0.779777 0.626058
vn 0.000000 0.779777 0.626058
vn 0.000000 0.779777 0.626058
vn 0.000000 0.779777 0.626058
vn 0.776410 0.000000 0.630229
vn 0.776410 0.000000 0.630229
vn 0.776410 0.000000 0.630229
vn 0.776410 0.000000 0.630229
vn -0.763745 0.000000 0.645518
vn -0.763745 0.000000 0.645518
vn -0.763745 0.000000 0.645518
vn -0.763745 0.000000 0.645518
vn 0.000000 -0.771652 0.636045
vn 0.000000 -0.771652 0.636045
vn 0.000000 -0.771652 0.636045
vn 0.000000 -0.771652 0.636045
vn 0.000000 0.635699 -0.771937
vn 0.000000 0.635699 -0.771937
vn 0.000000 0.635699 -0.771937
vn 0.000000 0.635699 -0.771937
vn 0.776410 0.630228 0.000000
vn 0.776410 0.630228 0.000000
vn 0.776410 0.630228 0.000000
vn 0.776410 0.630228 0.000000
vn -0.763745 0.645518 0.000000
vn -0.763745 0.645518 0.000000
vn -0.763745 0.645518 0.000000
vn -0.763745 0.645518 0.000000
vn 0.000000 0.629476 0.777020
vn 0.000000 0.629476 0.777020
vn 0.000000 0.629476 0.777020
vn 0.000000 0.629476 0.777020
vn 0.000000 -0.771652 -0.636045
vn 0.000000 -0.771652 -0.636045
vn 0.000000 -0.771652 -0.636045
vn 0.000000 -0.771652 -0.636045
vn 0.776410 0.000000 -0.630229
vn 0.776409 0.000000 -0.630229
vn 0.776410 0.000000 -0.630229
vn 0.776410 0.000000 -0.630229
vn -0.763745 0.000000 -0.645518
vn -0.763745 0.000000 -0.645518
vn -0.763745 0.000000 -0.645518
vn -0.763745 0.000000 -0.645518
vn 0.000000 0.779777 -0.626058
vn 0.000000 0.779777 -0.626058
vn 0.000000 0.779777 -0.626058
vn 0.000000 0.779777 -0.626058
vn 0.000000 -0.629476 0.777020
vn 0.000000 -0.629476 0.777020
vn 0.000000 -0.629476 0.777020
vn 0.000000 -0.629476 0.777020
vn 0.776410 -0.630228 0.000000
vn 0.776410 -0.630228 0.000000
vn 0.776410 -0.630228 0.000000
vn 0.776410 -0.630228 0.000000
vn -0.763746 -0.645517 0.000000
vn -0.763746 -0.645517 0.000000
vn -0.763746 -0.645517 0.000000
vn -0.763746 -0.645517 0.000000
vn 0.000000 -0.635699 -0.771937
vn 0.000000 -0.635699 -0.771937
vn 0.000000 -0.635699 -0.771937
vn 0.000000 -0.635699 -0.771937
vn 0.626059 0.779776 0.000000
vn 0.626059 0.779776 0.000000
vn 0.626059 0.779776 0.000000
vn 0.626059 0.779776 0.000000
vn 0.635700 0.000000 -0.771937
vn 0.635700 0.000000 -0.771937
vn 0.635700 0.000000 -0.771937
vn 0.635700 0.000000 -0.771937
vn 0.629476 0.000000 0.777020
vn 0.629476 0.000000 0.777020
vn 0.629476 0.000000 0.777020
vn 0.629476 0.000000 0.777020
vn 0.636046 -0.771652 0.000000
vn 0.636046 -0.771652 0.000000
vn 0.636046 -0.771652 0.000000
vn 0.636046 -0.771652 0.000000
vn -0.626059 0.779776 0.000000
vn -0.626059 0.779776 0.000000
vn -0.626059 0.779776 0.000000
vn -0.626059 0.779776 0.000000
vn -0.629475 0.000000 0.777020
vn -0.629475 0.000000 0.777020
vn -0.629475 0.000000 0.777020
vn -0.629475 0.000000 0.777020
vn -0.635699 0.000000 -0.771937
vn -0.635699 0.000000 -0.771937
vn -0.635699 0.000000 -0.771937
vn -0.635699 0.000000 -0.771937
vn -0.636045 -0.771652 0.000000
vn -0.636045 -0.771652 0.000000
vn -0.636045 -0.771652 0.000000
vn -0.636045 -0.771652 0.000000
s 1
g pCube1
f 25/81/1 26/82/2 27/83/3 28/84/4
f 27/83/3 26/82/2 29/85/5 30/86/6
f 29/85/5 31/89/7 32/90/8 30/86/6
f 27/83/3 33/87/9 34/88/10 28/84/4
s off
f 4/98/11 3/93/12 1/92/13 2/91/14
s 1
f 35/96/15 36/97/16 30/86/6 32/90/8
f 34/88/10 33/87/9 37/94/17 38/95/18
f 37/94/17 33/87/9 36/97/16 39/99/19
f 36/97/16 35/96/15 40/100/20 39/99/19
s 2
f 38/41/21 37/42/22 41/43/23 42/44/24
f 41/43/23 37/42/22 39/45/25 43/46/26
f 39/45/25 40/49/27 44/50/28 43/46/26
f 41/43/23 45/47/29 46/48/30 42/44/24
s off
f 8/58/31 7/53/32 5/52/33 6/51/34
s 2
f 47/56/35 48/57/36 43/46/26 44/50/28
f 46/48/30 45/47/29 49/54/37 50/55/38
f 49/54/37 45/47/29 48/57/36 51/59/39
f 48/57/36 47/56/35 52/60/40 51/59/39
s 3
f 50/101/41 49/102/42 53/103/43 54/104/44
f 53/103/43 49/102/42 51/105/45 55/106/46
f 51/105/45 52/109/47 56/110/48 55/106/46
f 53/103/43 57/107/49 58/108/50 54/104/44
s off
f 12/118/51 11/113/52 9/112/53 10/111/54
s 3
f 59/116/55 60/117/56 55/106/46 56/110/48
f 58/108/50 57/107/49 61/114/57 62/115/58
f 61/114/57 57/107/49 60/117/56 63/119/59
f 60/117/56 59/116/55 64/120/60 63/119/59
s 4
f 62/61/61 61/62/62 65/63/63 66/64/64
f 65/63/63 61/62/62 63/65/65 67/66/66
f 63/65/65 64/69/67 68/70/68 67/66/66
f 65/63/63 69/67/69 70/68/70 66/64/64
s off
f 16/78/71 15/73/72 13/72/73 14/71/74
s 4
f 71/76/75 72/77/76 67/66/66 68/70/68
f 70/68/70 69/67/69 26/74/77 25/75/78
f 29/79/79 26/74/77 69/67/69 72/77/76
f 72/77/76 71/76/75 31/80/80 29/79/79
s 5
f 68/1/81 64/2/82 59/3/83 73/4/84
f 73/4/84 74/7/85 71/8/86 68/1/81
f 31/14/87 71/8/86 74/7/85 32/15/88
f 73/4/84 59/3/83 56/5/89 75/6/90
s off
f 18/13/91 17/12/92 19/11/93 20/18/94
s 5
f 35/19/95 32/15/88 74/7/85 76/17/96
f 75/6/90 56/5/89 52/9/97 47/10/98
f 47/10/98 44/16/99 76/17/96 75/6/90
f 35/19/95 76/17/96 44/16/99 40/20/100
s 6
f 62/21/101 66/22/102 77/23/103 58/24/104
f 77/23/103 66/22/102 70/25/105 78/26/106
f 70/25/105 25/29/107 28/30/108 78/26/106
f 77/23/103 79/27/109 54/28/110 58/24/104
s off
f 24/38/111 23/33/112 21/32/113 22/31/114
s 6
f 28/30/108 34/36/115 80/37/116 78/26/106
f 54/28/110 79/27/109 46/34/117 50/35/118
f 42/39/119 46/34/117 79/27/109 80/37/116
f 80/37/116 34/36/115 38/40/120 42/39/119
s off
f 27/83/121 30/86/122 2/91/123 1/92/124
f 27/83/125 1/92/126 3/93/127 33/87/128
f 30/86/129 36/97/130 4/98/131 2/91/132
f 33/87/133 3/93/134 4/98/135 36/97/136
f 41/43/137 43/46/138 6/51/139 5/52/140
f 41/43/141 5/52/142 7/53/143 45/47/144
f 43/46/145 48/57/146 8/58/147 6/51/148
f 45/47/149 7/53/150 8/58/151 48/57/152
f 53/103/153 55/106/154 10/111/155 9/112/156
f 53/103/157 9/112/158 11/113/159 57/107/160
f 55/106/161 60/117/162 12/118/163 10/111/164
f 57/107/165 11/113/166 12/118/167 60/117/168
f 65/63/169 67/66/170 14/71/171 13/72/172
f 65/63/173 13/72/174 15/73/175 69/67/176
f 67/66/177 72/77/178 16/78/179 14/71/180
f 69/67/181 15/73/182 16/78/183 72/77/184
f 73/4/185 17/12/186 18/13/187 74/7/188
f 74/7/189 18/13/190 20/18/191 76/17/192
f 73/4/193 75/6/194 19/11/195 17/12/196
f 75/6/197 76/17/198 20/18/199 19/11/200
f 77/23/201 78/26/202 22/31/203 21/32/204
f 77/23/205 21/32/206 23/33/207 79/27/208
f 78/26/209 80/37/210 24/38/211 22/31/212
f 79/27/213 23/33/214 24/38/215 80/37/216
