# This file uses centimeters as units for non-parametric coordinates.

mtllib pipe.mtl
g default
v 5.000000 0.404509 -0.293893
v 5.000000 0.154508 -0.475528
v 5.000000 -0.154509 -0.475528
v 5.000000 -0.404509 -0.293893
v 5.000000 -0.500000 0.000000
v 5.000000 -0.404509 0.293893
v 5.000000 -0.154508 0.475528
v 5.000000 0.154509 0.475528
v 5.000000 0.404509 0.293893
v 5.000000 0.500000 0.000000
v -5.000000 0.404509 -0.293893
v -5.000000 0.154508 -0.475528
v -5.000000 -0.154509 -0.475528
v -5.000000 -0.404509 -0.293893
v -5.000000 -0.500000 0.000000
v -5.000000 -0.404509 0.293893
v -5.000000 -0.154508 0.475528
v -5.000000 0.154509 0.475528
v -5.000000 0.404509 0.293893
v -5.000000 0.500000 0.000000
vt 0.027373 0.003514
vt 0.055896 0.003514
vt 0.084420 0.003514
vt 0.112942 0.003514
vt 0.141466 0.003514
vt 0.169989 0.003514
vt 0.198512 0.003514
vt 0.227035 0.003514
vt 0.255557 0.003514
vt 0.284080 0.003514
vt 0.312604 0.003514
vt 0.027373 0.997426
vt 0.055896 0.997426
vt 0.084420 0.997426
vt 0.112942 0.997426
vt 0.141466 0.997426
vt 0.169989 0.997426
vt 0.198512 0.997426
vt 0.227035 0.997426
vt 0.255557 0.997426
vt 0.284080 0.997426
vt 0.312604 0.997426
vn 0.000000 0.587785 -0.809017
vn 0.000000 0.587785 -0.809017
vn 0.000000 0.587785 -0.809017
vn 0.000000 0.587785 -0.809017
vn -0.000000 -0.000000 -1.000000
vn -0.000000 -0.000000 -1.000000
vn -0.000000 -0.000000 -1.000000
vn -0.000000 -0.000000 -1.000000
vn -0.000000 -0.587785 -0.809017
vn -0.000000 -0.587785 -0.809017
vn -0.000000 -0.587785 -0.809017
vn -0.000000 -0.587785 -0.809017
vn -0.000000 -0.951057 -0.309017
vn -0.000000 -0.951057 -0.309017
vn -0.000000 -0.951057 -0.309017
vn -0.000000 -0.951057 -0.309017
vn -0.000000 -0.951056 0.309017
vn -0.000000 -0.951056 0.309017
vn -0.000000 -0.951056 0.309017
vn -0.000000 -0.951056 0.309017
vn -0.000000 -0.587785 0.809017
vn -0.000000 -0.587785 0.809017
vn -0.000000 -0.587785 0.809017
vn -0.000000 -0.587785 0.809017
vn 0.000000 0.000000 1.000000
vn 0.000000 0.000000 1.000000
vn 0.000000 0.000000 1.000000
vn 0.000000 0.000000 1.000000
vn 0.000000 0.587785 0.809017
vn 0.000000 0.587785 0.809017
vn 0.000000 0.587785 0.809017
vn 0.000000 0.587785 0.809017
vn 0.000000 0.951057 0.309017
vn 0.000000 0.951057 0.309017
vn 0.000000 0.951057 0.309017
vn 0.000000 0.951057 0.309017
vn 0.000000 0.951057 -0.309017
vn 0.000000 0.951057 -0.309017
vn 0.000000 0.951057 -0.309017
vn 0.000000 0.951057 -0.309017
s off
g pipLP
usemtl initialShadingGroup
f 1/1/1 2/2/2 12/13/3 11/12/4
f 2/2/5 3/3/6 13/14/7 12/13/8
f 3/3/9 4/4/10 14/15/11 13/14/12
f 4/4/13 5/5/14 15/16/15 14/15/16
f 5/5/17 6/6/18 16/17/19 15/16/20
f 6/6/21 7/7/22 17/18/23 16/17/24
f 7/7/25 8/8/26 18/19/27 17/18/28
f 8/8/29 9/9/30 19/20/31 18/19/32
f 9/9/33 10/10/34 20/21/35 19/20/36
f 10/10/37 1/11/38 11/22/39 20/21/40
