# This file uses centimeters as units for non-parametric coordinates.

mtllib pipebend.mtl
g default
v 5.000000 4.983116 -0.293893
v 5.000000 4.733116 -0.475528
v 5.000000 4.424099 -0.475528
v 5.000000 4.174099 -0.293893
v 5.000000 4.078607 0.000000
v 5.000000 4.174099 0.293893
v 5.000000 4.424099 0.475528
v 5.000000 4.733116 0.475528
v 5.000000 4.983116 0.293893
v 5.000000 5.078607 0.000000
v -2.687777 6.905278 -0.293893
v -2.937777 6.905278 -0.475528
v -3.246794 6.905278 -0.475528
v -3.496794 6.905278 -0.293893
v -3.592286 6.905278 0.000000
v -3.496794 6.905278 0.293893
v -3.246794 6.905278 0.475528
v -2.937777 6.905278 0.475528
v -2.687777 6.905278 0.293893
v -2.592286 6.905278 0.000000
v -2.687777 5.592814 -0.293893
v -2.592286 5.592814 0.000000
v -2.687777 5.592814 0.293893
v -2.937777 5.592814 0.475528
v -3.246794 5.592814 0.475528
v -3.496794 5.592814 0.293893
v -3.592286 5.592814 0.000000
v -3.496794 5.592814 -0.293893
v -3.246794 5.592814 -0.475528
v -2.937777 5.592814 -0.475528
v -2.664268 5.392487 -0.293893
v -2.572704 5.419591 0.000000
v -2.664268 5.392487 0.293893
v -2.903986 5.321528 0.475528
v -3.200294 5.233818 0.475528
v -3.440013 5.162859 0.293893
v -3.531577 5.135755 0.000000
v -3.440013 5.162859 -0.293893
v -3.200294 5.233818 -0.475528
v -2.903986 5.321528 -0.475528
v -2.583178 5.225126 -0.293893
v -2.505160 5.280188 0.000000
v -2.583178 5.225126 0.293893
v -2.787431 5.080971 0.475528
v -3.039901 4.902785 0.475528
v -3.244154 4.758629 0.293893
v -3.322172 4.703567 0.000000
v -3.244154 4.758629 -0.293893
v -3.039901 4.902785 -0.475528
v -2.787431 5.080971 -0.475528
v -2.452641 5.092644 -0.293893
v -2.396430 5.169838 0.000000
v -2.452641 5.092644 0.293893
v -2.599803 4.890546 0.475528
v -2.781706 4.640740 0.475528
v -2.928868 4.438643 0.293893
v -2.985078 4.361448 0.000000
v -2.928868 4.438643 -0.293893
v -2.781706 4.640740 -0.475528
v -2.599803 4.890546 -0.475528
v -2.286496 5.009085 -0.293893
v -2.258040 5.100238 0.000000
v -2.286496 5.009085 0.293893
v -2.360993 4.770442 0.475528
v -2.453077 4.475464 0.475528
v -2.527574 4.236822 0.293893
v -2.556030 4.145669 0.000000
v -2.527574 4.236822 -0.293893
v -2.453077 4.475464 -0.475528
v -2.360993 4.770442 -0.475528
v -2.092523 4.983116 -0.293893
v -2.092523 5.078607 0.000000
v -2.092523 4.983116 0.293893
v -2.092523 4.733116 0.475528
v -2.092523 4.424099 0.475528
v -2.092523 4.174099 0.293893
v -2.092523 4.078607 0.000000
v -2.092523 4.174099 -0.293893
v -2.092523 4.424099 -0.475528
v -2.092523 4.733116 -0.475528
vt 0.363100 0.004818
vt 0.387798 0.004818
vt 0.409000 0.004818
vt 0.433780 0.004818
vt 0.459076 0.004818
vt 0.489134 0.004818
vt 0.513249 0.004818
vt 0.541618 0.004818
vt 0.565502 0.004818
vt 0.597802 0.004818
vt 0.362410 0.998680
vt 0.387274 0.998680
vt 0.404893 0.998680
vt 0.431610 0.998680
vt 0.458885 0.998680
vt 0.491294 0.998680
vt 0.517295 0.998679
vt 0.542128 0.998679
vt 0.566173 0.998679
vt 0.332779 0.998680
vt 0.362410 0.884392
vt 0.598689 0.884392
vt 0.566173 0.884392
vt 0.542128 0.884392
vt 0.517295 0.884392
vt 0.491294 0.884392
vt 0.458885 0.884392
vt 0.431610 0.884392
vt 0.404893 0.884392
vt 0.387274 0.884392
vt 0.362410 0.842504
vt 0.598689 0.842504
vt 0.566173 0.842504
vt 0.542128 0.842504
vt 0.517295 0.842504
vt 0.491294 0.842504
vt 0.458885 0.842504
vt 0.431610 0.842504
vt 0.404893 0.842504
vt 0.387274 0.842504
vt 0.362410 0.806651
vt 0.598689 0.806651
vt 0.566173 0.806651
vt 0.542128 0.806651
vt 0.517295 0.806651
vt 0.491294 0.806651
vt 0.458885 0.806651
vt 0.431610 0.806651
vt 0.404893 0.806651
vt 0.387274 0.806651
vt 0.362410 0.769276
vt 0.598689 0.769276
vt 0.566173 0.769276
vt 0.542128 0.769276
vt 0.517295 0.769276
vt 0.491294 0.769276
vt 0.458885 0.769276
vt 0.431610 0.769276
vt 0.404893 0.769276
vt 0.387274 0.769276
vt 0.362410 0.734697
vt 0.598689 0.734697
vt 0.566173 0.734697
vt 0.542128 0.734697
vt 0.517295 0.734697
vt 0.491294 0.734697
vt 0.458885 0.734697
vt 0.431610 0.734697
vt 0.404893 0.734697
vt 0.387274 0.734697
vt 0.362410 0.701605
vt 0.598689 0.701604
vt 0.566173 0.701605
vt 0.542128 0.701605
vt 0.517295 0.701604
vt 0.491294 0.701604
vt 0.458885 0.701604
vt 0.431610 0.701605
vt 0.404893 0.701604
vt 0.387274 0.701604
vt 0.333667 0.004818
vt 0.332779 0.701604
vt 0.332779 0.734697
vt 0.332779 0.769276
vt 0.332779 0.806651
vt 0.332779 0.842504
vt 0.332779 0.884392
vt 0.598689 0.998680
vn 0.003629 0.587822 -0.808982
vn 0.000000 0.587785 -0.809017
vn 0.000000 0.587785 -0.809017
vn 0.001402 0.587800 -0.809005
vn -0.000000 -0.000000 -1.000000
vn -0.000000 -0.000000 -1.000000
vn -0.000000 -0.000000 -1.000000
vn -0.000000 -0.000000 -1.000000
vn -0.006383 -0.587813 -0.808972
vn -0.000000 -0.587785 -0.809017
vn -0.000000 -0.587785 -0.809017
vn -0.002465 -0.587799 -0.809003
vn -0.009429 -0.951022 -0.308980
vn -0.000000 -0.951057 -0.309017
vn -0.000000 -0.951057 -0.309017
vn -0.006911 -0.951039 -0.308993
vn -0.006911 -0.951039 0.308993
vn -0.000000 -0.951057 0.309017
vn -0.000000 -0.951057 0.309017
vn -0.009429 -0.951022 0.308980
vn -0.002465 -0.587799 0.809004
vn -0.000000 -0.587785 0.809017
vn -0.000000 -0.587785 0.809017
vn -0.006383 -0.587812 0.808972
vn 0.000000 0.000000 1.000000
vn 0.000000 0.000000 1.000000
vn 0.000000 0.000000 1.000000
vn 0.000000 0.000000 1.000000
vn 0.001402 0.587800 0.809005
vn 0.000000 0.587785 0.809017
vn 0.000000 0.587785 0.809017
vn 0.003629 0.587822 0.808982
vn 0.002627 0.951059 0.308999
vn 0.000000 0.951057 0.309017
vn 0.000000 0.951057 0.309017
vn 0.003590 0.951058 0.308991
vn 0.003590 0.951058 -0.308991
vn 0.000000 0.951057 -0.309017
vn 0.000000 0.951057 -0.309017
vn 0.002627 0.951059 -0.308998
vn 0.951057 -0.000000 -0.309017
vn 0.951015 0.013670 -0.308842
vn 0.951015 0.013664 -0.308842
vn 0.951057 -0.000000 -0.309017
vn 0.951056 -0.000000 0.309017
vn 0.951015 0.013664 0.308842
vn 0.951015 0.013670 0.308842
vn 0.951056 -0.000000 0.309017
vn 0.587785 -0.000000 0.809017
vn 0.587945 0.010870 0.808828
vn 0.587945 0.010889 0.808827
vn 0.587785 -0.000000 0.809017
vn 0.000000 -0.000000 1.000000
vn 0.000000 0.000000 1.000000
vn 0.000000 0.000000 1.000000
vn 0.000000 -0.000000 1.000000
vn -0.587785 0.000000 0.809017
vn -0.587869 -0.017769 0.808761
vn -0.587869 -0.017800 0.808760
vn -0.587785 0.000000 0.809017
vn -0.951056 0.000000 0.309018
vn -0.950616 -0.031796 0.308737
vn -0.950615 -0.031809 0.308737
vn -0.951056 0.000000 0.309018
vn -0.951056 0.000000 -0.309018
vn -0.950615 -0.031809 -0.308737
vn -0.950616 -0.031796 -0.308737
vn -0.951056 0.000000 -0.309018
vn -0.587786 0.000000 -0.809017
vn -0.587869 -0.017800 -0.808760
vn -0.587869 -0.017769 -0.808761
vn -0.587786 0.000000 -0.809017
vn -0.000000 0.000000 -1.000000
vn -0.000000 -0.000000 -1.000000
vn -0.000000 -0.000000 -1.000000
vn -0.000000 0.000000 -1.000000
vn 0.587785 -0.000000 -0.809017
vn 0.587945 0.010889 -0.808827
vn 0.587945 0.010870 -0.808828
vn 0.587785 -0.000000 -0.809017
vn 0.917695 0.248970 -0.309597
vn 0.912636 0.266914 -0.309601
vn 0.912636 0.266914 0.309601
vn 0.917695 0.248970 0.309597
vn 0.557459 0.185437 0.809230
vn 0.570000 0.141720 0.809330
vn 0.000000 0.000000 1.000000
vn 0.000000 0.000000 1.000000
vn -0.556053 -0.190701 0.808974
vn -0.568504 -0.148280 0.809207
vn -0.907440 -0.284502 0.309210
vn -0.912566 -0.267532 0.309274
vn -0.912566 -0.267532 -0.309274
vn -0.907440 -0.284502 -0.309211
vn -0.568504 -0.148280 -0.809207
vn -0.556053 -0.190701 -0.808974
vn -0.000000 -0.000000 -1.000000
vn -0.000000 -0.000000 -1.000000
vn 0.570000 0.141720 -0.809330
vn 0.557459 0.185436 -0.809230
vn 0.787392 0.533436 -0.308965
vn 0.766369 0.563222 -0.308965
vn 0.766369 0.563222 0.308965
vn 0.787392 0.533436 0.308966
vn 0.456400 0.371849 0.808349
vn 0.503133 0.305642 0.808356
vn 0.000000 0.000000 1.000000
vn 0.000000 0.000000 1.000000
vn -0.456399 -0.371849 0.808349
vn -0.503133 -0.305642 0.808357
vn -0.766369 -0.563222 0.308966
vn -0.787392 -0.533436 0.308966
vn -0.787392 -0.533436 -0.308966
vn -0.766369 -0.563222 -0.308966
vn -0.503133 -0.305642 -0.808357
vn -0.456400 -0.371849 -0.808349
vn -0.000000 -0.000000 -1.000000
vn -0.000000 -0.000000 -1.000000
vn 0.503133 0.305642 -0.808356
vn 0.456400 0.371849 -0.808349
vn 0.579873 0.753867 -0.308920
vn 0.539396 0.783339 -0.308920
vn 0.539396 0.783339 0.308920
vn 0.579873 0.753867 0.308920
vn 0.304802 0.504233 0.807988
vn 0.385743 0.445320 0.808018
vn 0.000000 0.000000 1.000000
vn 0.000000 0.000000 1.000000
vn -0.304802 -0.504233 0.807988
vn -0.385743 -0.445320 0.808018
vn -0.539396 -0.783339 0.308920
vn -0.579873 -0.753867 0.308920
vn -0.579873 -0.753867 -0.308920
vn -0.539396 -0.783339 -0.308920
vn -0.385743 -0.445320 -0.808017
vn -0.304802 -0.504233 -0.807988
vn -0.000000 -0.000000 -1.000000
vn -0.000000 -0.000000 -1.000000
vn 0.385743 0.445320 -0.808018
vn 0.304802 0.504233 -0.807988
vn 0.300355 0.902276 -0.309331
vn 0.249019 0.917774 -0.309322
vn 0.249019 0.917774 0.309323
vn 0.300355 0.902275 0.309331
vn 0.123021 0.575729 0.808333
vn 0.216277 0.547409 0.808435
vn 0.000000 0.000000 1.000000
vn 0.000000 0.000000 1.000000
vn -0.127251 -0.574854 0.808301
vn -0.219632 -0.546379 0.808228
vn -0.261426 -0.914382 0.309130
vn -0.311532 -0.898585 0.309019
vn -0.311531 -0.898585 -0.309019
vn -0.261426 -0.914382 -0.309130
vn -0.219632 -0.546379 -0.808228
vn -0.127251 -0.574854 -0.808301
vn -0.000000 -0.000000 -1.000000
vn -0.000000 -0.000000 -1.000000
vn 0.216277 0.547409 -0.808435
vn 0.123021 0.575729 -0.808333
s 1
g pipecornerLP
usemtl initialShadingGroup
f 71/71/1 1/1/2 2/2/3 80/80/4
s 2
f 80/80/5 2/2/6 3/3/7 79/79/8
s 3
f 79/79/9 3/3/10 4/4/11 78/78/12
s 4
f 78/78/13 4/4/14 5/5/15 77/77/16
s 5
f 77/77/17 5/5/18 6/6/19 76/76/20
s 6
f 76/76/21 6/6/22 7/7/23 75/75/24
s 7
f 75/75/25 7/7/26 8/8/27 74/74/28
s 8
f 74/74/29 8/8/30 9/9/31 73/73/32
s 9
f 73/73/33 9/9/34 10/10/35 72/72/36
s 10
f 72/82/37 10/81/38 1/1/39 71/71/40
f 20/20/41 22/87/42 21/21/43 11/11/44
s 9
f 19/19/45 23/23/46 22/22/47 20/88/48
s 8
f 18/18/49 24/24/50 23/23/51 19/19/52
s 7
f 17/17/53 25/25/54 24/24/55 18/18/56
s 6
f 16/16/57 26/26/58 25/25/59 17/17/60
s 5
f 15/15/61 27/27/62 26/26/63 16/16/64
s 4
f 14/14/65 28/28/66 27/27/67 15/15/68
s 3
f 13/13/69 29/29/70 28/28/71 14/14/72
s 2
f 12/12/73 30/30/74 29/29/75 13/13/76
s 1
f 11/11/77 21/21/78 30/30/79 12/12/80
s 10
f 32/86/81 31/31/82 21/21/43 22/87/42
s 9
f 33/33/83 32/32/84 22/22/47 23/23/46
s 8
f 34/34/85 33/33/86 23/23/51 24/24/50
s 7
f 35/35/87 34/34/88 24/24/55 25/25/54
s 6
f 36/36/89 35/35/90 25/25/59 26/26/58
s 5
f 37/37/91 36/36/92 26/26/63 27/27/62
s 4
f 38/38/93 37/37/94 27/27/67 28/28/66
s 3
f 39/39/95 38/38/96 28/28/71 29/29/70
s 2
f 40/40/97 39/39/98 29/29/75 30/30/74
s 1
f 31/31/99 40/40/100 30/30/79 21/21/78
s 10
f 42/85/101 41/41/102 31/31/82 32/86/81
s 9
f 43/43/103 42/42/104 32/32/84 33/33/83
s 8
f 44/44/105 43/43/106 33/33/86 34/34/85
s 7
f 45/45/107 44/44/108 34/34/88 35/35/87
s 6
f 46/46/109 45/45/110 35/35/90 36/36/89
s 5
f 47/47/111 46/46/112 36/36/92 37/37/91
s 4
f 48/48/113 47/47/114 37/37/94 38/38/93
s 3
f 49/49/115 48/48/116 38/38/96 39/39/95
s 2
f 50/50/117 49/49/118 39/39/98 40/40/97
s 1
f 41/41/119 50/50/120 40/40/100 31/31/99
s 10
f 52/84/121 51/51/122 41/41/102 42/85/101
s 9
f 53/53/123 52/52/124 42/42/104 43/43/103
s 8
f 54/54/125 53/53/126 43/43/106 44/44/105
s 7
f 55/55/127 54/54/128 44/44/108 45/45/107
s 6
f 56/56/129 55/55/130 45/45/110 46/46/109
s 5
f 57/57/131 56/56/132 46/46/112 47/47/111
s 4
f 58/58/133 57/57/134 47/47/114 48/48/113
s 3
f 59/59/135 58/58/136 48/48/116 49/49/115
s 2
f 60/60/137 59/59/138 49/49/118 50/50/117
s 1
f 51/51/139 60/60/140 50/50/120 41/41/119
s 10
f 62/83/141 61/61/142 51/51/122 52/84/121
s 9
f 63/63/143 62/62/144 52/52/124 53/53/123
s 8
f 64/64/145 63/63/146 53/53/126 54/54/125
s 7
f 65/65/147 64/64/148 54/54/128 55/55/127
s 6
f 66/66/149 65/65/150 55/55/130 56/56/129
s 5
f 67/67/151 66/66/152 56/56/132 57/57/131
s 4
f 68/68/153 67/67/154 57/57/134 58/58/133
s 3
f 69/69/155 68/68/156 58/58/136 59/59/135
s 2
f 70/70/157 69/69/158 59/59/138 60/60/137
s 1
f 61/61/159 70/70/160 60/60/140 51/51/139
s 10
f 72/82/37 71/71/40 61/61/142 62/83/141
s 9
f 73/73/33 72/72/36 62/62/144 63/63/143
s 8
f 74/74/29 73/73/32 63/63/146 64/64/145
s 7
f 75/75/25 74/74/28 64/64/148 65/65/147
s 6
f 76/76/21 75/75/24 65/65/150 66/66/149
s 5
f 77/77/17 76/76/20 66/66/152 67/67/151
s 4
f 78/78/13 77/77/16 67/67/154 68/68/153
s 3
f 79/79/9 78/78/12 68/68/156 69/69/155
s 2
f 80/80/5 79/79/8 69/69/158 70/70/157
s 1
f 71/71/1 80/80/4 70/70/160 61/61/159
