# This file uses centimeters as units for non-parametric coordinates.

mtllib turret base.mtl
g default
v 0.141025 -2.567467 -0.565693
v -0.118996 -2.567467 -1.076012
v -0.523988 -2.567467 -1.481004
v -1.034307 -2.567467 -1.741024
v -1.600000 -2.567467 -1.830621
v -2.165693 -2.567467 -1.741024
v -2.676012 -2.567467 -1.481004
v -3.081003 -2.567467 -1.076012
v -3.341024 -2.567467 -0.565693
v -3.430621 -2.567467 0.000000
v -3.341024 -2.567467 0.565693
v -3.081003 -2.567467 1.076012
v -2.676012 -2.567467 1.481003
v -2.165693 -2.567467 1.741024
v -1.600000 -2.567467 1.830621
v -1.034307 -2.567467 1.741024
v -0.523988 -2.567467 1.481003
v -0.118997 -2.567467 1.076012
v 0.141023 -2.567467 0.565693
v 0.230620 -2.567467 0.000000
v -1.600000 -2.332532 0.000000
v 0.141025 -2.403005 -0.565693
v 0.073165 -2.332532 -0.543644
v -0.118996 -2.403005 -1.076012
v -0.176721 -2.332532 -1.034073
v -0.523988 -2.403005 -1.481004
v -0.565927 -2.332532 -1.423279
v -1.034307 -2.403005 -1.741024
v -1.056356 -2.332532 -1.673165
v -1.600000 -2.403005 -1.830621
v -1.600000 -2.332532 -1.759269
v -2.165693 -2.403005 -1.741024
v -2.143644 -2.332532 -1.673165
v -2.676012 -2.403005 -1.481004
v -2.634072 -2.332532 -1.423279
v -3.081003 -2.403005 -1.076012
v -3.023278 -2.332532 -1.034072
v -3.341024 -2.403005 -0.565693
v -3.273164 -2.332532 -0.543644
v -3.430621 -2.403005 0.000000
v -3.359269 -2.332532 0.000000
v -3.341024 -2.403005 0.565693
v -3.273164 -2.332532 0.543644
v -3.081003 -2.403005 1.076012
v -3.023278 -2.332532 1.034072
v -2.676012 -2.403005 1.481003
v -2.634072 -2.332532 1.423278
v -2.165693 -2.403005 1.741024
v -2.143644 -2.332532 1.673164
v -1.600000 -2.403005 1.830621
v -1.600000 -2.332532 1.759269
v -1.034307 -2.403005 1.741024
v -1.056356 -2.332532 1.673164
v -0.523988 -2.403005 1.481003
v -0.565928 -2.332532 1.423278
v -0.118997 -2.403005 1.076012
v -0.176722 -2.332532 1.034072
v 0.141023 -2.403005 0.565693
v 0.073164 -2.332532 0.543644
v 0.230620 -2.403005 0.000000
v 0.159268 -2.332532 -0.000000
vt 0.709682 0.941854
vt 0.709682 0.948328
vt 0.666955 0.948328
vt 0.666955 0.941854
vt 0.752410 0.941854
vt 0.752410 0.948328
vt 0.795137 0.941854
vt 0.795137 0.948328
vt 0.837865 0.941854
vt 0.837865 0.948328
vt 0.880593 0.941854
vt 0.880593 0.948328
vt 0.026041 0.948328
vt 0.026041 0.941854
vt 0.068769 0.941854
vt 0.068769 0.948328
vt 0.111496 0.941854
vt 0.111496 0.948328
vt 0.154224 0.941854
vt 0.154224 0.948328
vt 0.196951 0.941854
vt 0.196951 0.948328
vt 0.239679 0.941854
vt 0.239679 0.948328
vt 0.282407 0.941854
vt 0.282407 0.948328
vt 0.325134 0.941854
vt 0.325134 0.948328
vt 0.367862 0.941854
vt 0.367862 0.948328
vt 0.410589 0.941854
vt 0.410589 0.948328
vt 0.453317 0.941854
vt 0.453317 0.948328
vt 0.496044 0.941854
vt 0.496044 0.948328
vt 0.538772 0.941854
vt 0.538772 0.948328
vt 0.581500 0.941854
vt 0.581500 0.948328
vt 0.624227 0.941854
vt 0.624227 0.948328
vt 0.709682 0.926744
vt 0.752410 0.926744
vt 0.795137 0.926744
vt 0.837865 0.926744
vt 0.880593 0.926744
vt 0.026041 0.926744
vt 0.068769 0.926744
vt 0.111496 0.926744
vt 0.154224 0.926744
vt 0.196951 0.926744
vt 0.239679 0.926744
vt 0.282407 0.926744
vt 0.325134 0.926744
vt 0.367862 0.926744
vt 0.410589 0.926744
vt 0.453317 0.926744
vt 0.496044 0.926744
vt 0.538772 0.926744
vt 0.581500 0.926744
vt 0.624227 0.926744
vt 0.666955 0.926744
vt 0.704553 0.713643
vt 0.694626 0.733126
vt 0.638085 0.689251
vt 0.679165 0.748587
vt 0.659682 0.758514
vt 0.638085 0.761935
vt 0.616488 0.758514
vt 0.597005 0.748587
vt 0.581544 0.733126
vt 0.571617 0.713643
vt 0.568196 0.692046
vt 0.571617 0.670449
vt 0.581544 0.650967
vt 0.597005 0.635505
vt 0.616488 0.625578
vt 0.638085 0.622157
vt 0.659682 0.625578
vt 0.679165 0.635505
vt 0.694626 0.650967
vt 0.704553 0.670449
vt 0.704553 0.670449
vt 0.707974 0.692046
vn 0.668320 0.711474 -0.217149
vn 0.668320 0.711474 -0.217149
vn 0.702713 0.711473 0.000001
vn 0.702713 0.711474 0.000001
vn 0.568507 0.711473 -0.413045
vn 0.568507 0.711473 -0.413044
vn 0.413044 0.711473 -0.568507
vn 0.413044 0.711473 -0.568507
vn 0.217150 0.711473 -0.668320
vn 0.217150 0.711473 -0.668320
vn -0.000000 0.711473 -0.702713
vn -0.000000 0.711473 -0.702713
vn -0.217150 0.711473 -0.668320
vn -0.217150 0.711473 -0.668320
vn -0.413045 0.711473 -0.568507
vn -0.413045 0.711473 -0.568507
vn -0.568507 0.711474 -0.413044
vn -0.568507 0.711474 -0.413044
vn -0.668319 0.711474 -0.217150
vn -0.668319 0.711474 -0.217150
vn -0.702713 0.711474 0.000000
vn -0.702713 0.711474 0.000000
vn -0.668320 0.711474 0.217150
vn -0.668320 0.711474 0.217150
vn -0.568507 0.711473 0.413044
vn -0.568507 0.711473 0.413044
vn -0.413044 0.711473 0.568507
vn -0.413044 0.711473 0.568507
vn -0.217150 0.711473 0.668320
vn -0.217150 0.711473 0.668320
vn -0.000000 0.711473 0.702713
vn -0.000000 0.711473 0.702713
vn 0.217150 0.711473 0.668320
vn 0.217150 0.711473 0.668320
vn 0.413044 0.711473 0.568507
vn 0.413044 0.711473 0.568507
vn 0.568507 0.711473 0.413044
vn 0.568507 0.711473 0.413044
vn 0.668320 0.711473 0.217150
vn 0.668320 0.711473 0.217150
vn 0.951057 0.000000 -0.309016
vn 0.809017 0.000000 -0.587785
vn 0.809017 0.000000 -0.587785
vn 0.951057 0.000000 -0.309016
vn 0.587785 0.000000 -0.809017
vn 0.587785 0.000000 -0.809017
vn 0.309017 0.000000 -0.951057
vn 0.309017 0.000000 -0.951057
vn -0.000000 0.000000 -1.000000
vn -0.000000 0.000000 -1.000000
vn -0.309017 0.000000 -0.951056
vn -0.309017 0.000000 -0.951056
vn -0.587786 0.000000 -0.809017
vn -0.587786 0.000000 -0.809017
vn -0.809017 0.000000 -0.587785
vn -0.809017 0.000000 -0.587785
vn -0.951057 0.000000 -0.309017
vn -0.951057 0.000000 -0.309017
vn -1.000000 0.000000 0.000000
vn -1.000000 0.000000 0.000000
vn -0.951057 0.000000 0.309017
vn -0.951057 0.000000 0.309017
vn -0.809017 0.000000 0.587785
vn -0.809017 0.000000 0.587785
vn -0.587785 0.000000 0.809017
vn -0.587785 0.000000 0.809017
vn -0.309017 0.000000 0.951057
vn -0.309017 0.000000 0.951057
vn 0.000000 0.000000 1.000000
vn 0.000000 0.000000 1.000000
vn 0.309017 0.000000 0.951057
vn 0.309017 0.000000 0.951057
vn 0.587785 0.000000 0.809017
vn 0.587785 0.000000 0.809017
vn 0.809017 0.000000 0.587785
vn 0.809017 0.000000 0.587785
vn 0.951057 0.000000 0.309017
vn 0.951057 0.000000 0.309017
vn 1.000000 0.000000 0.000001
vn 1.000000 0.000000 0.000001
vn 0.000000 1.000000 0.000000
vn 0.000000 1.000000 -0.000000
vn 0.000000 1.000000 -0.000000
vn 0.000000 1.000000 -0.000000
vn 0.000000 1.000000 0.000000
vn 0.000000 1.000000 0.000000
vn 0.000000 1.000000 0.000000
vn 0.000000 1.000000 0.000000
vn 0.000000 1.000000 0.000000
vn 0.000000 1.000000 0.000000
vn 0.000000 1.000000 0.000000
vn 0.000000 1.000000 -0.000000
vn 0.000000 1.000000 -0.000000
vn 0.000000 1.000000 0.000000
vn 0.000000 1.000000 0.000000
vn 0.000000 1.000000 0.000000
vn 0.000000 1.000000 0.000000
vn 0.000000 1.000000 0.000000
vn 0.000000 1.000000 0.000000
vn 0.000000 1.000000 0.000000
vn 0.000000 1.000000 -0.000000
s 1
g polySurface2 turret3
usemtl initialShadingGroup
f 22/1/1 23/2/2 61/3/3 60/4/4
f 23/2/2 22/1/1 24/5/5 25/6/6
f 25/6/6 24/5/5 26/7/7 27/8/8
f 27/8/8 26/7/7 28/9/9 29/10/10
f 29/10/10 28/9/9 30/11/11 31/12/12
f 31/13/12 30/14/11 32/15/13 33/16/14
f 33/16/14 32/15/13 34/17/15 35/18/16
f 35/18/16 34/17/15 36/19/17 37/20/18
f 37/20/18 36/19/17 38/21/19 39/22/20
f 39/22/20 38/21/19 40/23/21 41/24/22
f 41/24/22 40/23/21 42/25/23 43/26/24
f 43/26/24 42/25/23 44/27/25 45/28/26
f 45/28/26 44/27/25 46/29/27 47/30/28
f 47/30/28 46/29/27 48/31/29 49/32/30
f 49/32/30 48/31/29 50/33/31 51/34/32
f 51/34/32 50/33/31 52/35/33 53/36/34
f 53/36/34 52/35/33 54/37/35 55/38/36
f 55/38/36 54/37/35 56/39/37 57/40/38
f 57/40/38 56/39/37 58/41/39 59/42/40
f 59/42/40 58/41/39 60/4/4 61/3/3
s 2
f 1/43/41 2/44/42 24/5/43 22/1/44
f 2/44/42 3/45/45 26/7/46 24/5/43
f 3/45/45 4/46/47 28/9/48 26/7/46
f 4/46/47 5/47/49 30/11/50 28/9/48
f 5/48/49 6/49/51 32/15/52 30/14/50
f 6/49/51 7/50/53 34/17/54 32/15/52
f 7/50/53 8/51/55 36/19/56 34/17/54
f 8/51/55 9/52/57 38/21/58 36/19/56
f 9/52/57 10/53/59 40/23/60 38/21/58
f 10/53/59 11/54/61 42/25/62 40/23/60
f 11/54/61 12/55/63 44/27/64 42/25/62
f 12/55/63 13/56/65 46/29/66 44/27/64
f 13/56/65 14/57/67 48/31/68 46/29/66
f 14/57/67 15/58/69 50/33/70 48/31/68
f 15/58/69 16/59/71 52/35/72 50/33/70
f 16/59/71 17/60/73 54/37/74 52/35/72
f 17/60/73 18/61/75 56/39/76 54/37/74
f 18/61/75 19/62/77 58/41/78 56/39/76
f 19/62/77 20/63/79 60/4/80 58/41/78
f 20/63/79 1/43/41 22/1/44 60/4/80
s 3
f 23/64/81 25/65/82 21/66/83
f 25/65/82 27/67/84 21/66/83
f 27/67/84 29/68/85 21/66/83
f 29/68/85 31/69/86 21/66/83
f 31/69/86 33/70/87 21/66/83
f 33/70/87 35/71/88 21/66/83
f 35/71/88 37/72/89 21/66/83
f 37/72/89 39/73/90 21/66/83
f 39/73/90 41/74/91 21/66/83
f 41/74/91 43/75/92 21/66/83
f 43/75/92 45/76/93 21/66/83
f 45/76/93 47/77/94 21/66/83
f 47/77/94 49/78/95 21/66/83
f 49/78/95 51/79/96 21/66/83
f 51/79/96 53/80/97 21/66/83
f 53/80/97 55/81/98 21/66/83
f 55/81/98 57/82/99 21/66/83
f 57/82/99 59/83/100 21/66/83
f 59/84/100 61/85/101 21/66/83
f 61/85/101 23/64/81 21/66/83
